<svg width="378" height="100" viewBox="0 0 378 100" fill="none" xmlns="http://www.w3.org/2000/svg">
<path fill-rule="evenodd" clip-rule="evenodd" d="M47.3661 0.0620544C39.9842 0.577372 33.7432 2.27888 27.316 5.52822C15.7472 11.377 6.92556 21.5625 2.63727 34.0227C-1.26482 45.3599 -0.818063 58.3455 3.85306 69.3643C6.54864 75.7228 9.88946 80.6517 14.7924 85.5038C18.9842 89.6523 22.9162 92.4276 28.3253 95.0559C39.9232 100.692 53.4508 101.549 65.6668 97.4236C67.9513 96.6521 69.2728 96.1088 71.5052 95.0237C75.5664 93.0497 78.7285 90.9785 82.1354 88.0613L83.6001 86.8071L84.1464 87.0825C84.4562 87.2388 84.7712 87.3145 84.8742 87.2573C85.0743 87.146 85.9859 85.9159 85.9859 85.757C85.9859 85.7021 86.1676 85.4768 86.3896 85.2563C86.6117 85.0358 86.7933 84.7626 86.7933 84.6493C86.7933 84.536 86.9016 84.3856 87.0342 84.3153C87.1666 84.2449 87.3633 84.0173 87.4715 83.8094C87.5796 83.6016 87.8344 83.2616 88.038 83.0538C88.2416 82.8459 88.4081 82.5866 88.4081 82.4772C88.4081 82.3678 88.5897 82.1266 88.8118 81.9411C89.0338 81.7554 89.2155 81.4887 89.2155 81.3482C89.2155 81.2078 89.2932 81.0929 89.3882 81.0929C89.4834 81.0929 89.6716 80.907 89.8067 80.6799C89.9418 80.4527 90.2135 80.2111 90.4105 80.1429C90.6074 80.0748 90.853 79.8847 90.9562 79.7206C91.2954 79.1813 92.9833 76.2543 92.9833 76.2053C92.9833 76.179 93.305 75.6292 93.6983 74.9835C95.1651 72.5755 95.9706 71.065 95.8939 70.8665C95.8508 70.755 95.6062 70.541 95.3505 70.3911L94.8853 70.1186L96.0677 68.0884C96.7179 66.9719 97.3345 65.8995 97.4379 65.7053C97.5412 65.5113 97.8748 64.94 98.1793 64.4358C99.4877 62.2693 99.6267 61.9579 99.4694 61.5442C99.3323 61.1835 99.3502 61.1493 99.7637 60.9775C100.498 60.673 100.564 60.5085 100.487 59.1687C100.378 57.2736 99.932 57.0454 98.0967 57.9458L97.0875 58.4408L97.0471 59.1333C97.0091 59.7839 96.9821 59.831 96.5972 59.915C96.3015 59.9795 96.1358 60.1279 96.0005 60.4495C95.8975 60.6945 95.7574 60.929 95.6895 60.9709C95.5707 61.0437 95.1293 61.7833 94.3355 63.2393C93.5272 64.7219 91.7182 67.8066 91.5493 67.9903C91.4095 68.1424 91.3349 68.1498 91.208 68.0237C91.1186 67.935 90.9121 67.8624 90.749 67.8624C90.471 67.8624 89.5282 69.3527 87.3655 73.2109C87.2204 73.4696 86.6985 74.3483 86.2055 75.1634C85.4124 76.4753 85.3123 76.7172 85.3333 77.2703C85.3464 77.6141 85.2866 77.9653 85.2006 78.0507C85.1145 78.1362 85.044 78.313 85.044 78.4436C85.044 78.5741 84.9232 78.8778 84.7754 79.1184C84.6276 79.3591 84.5065 79.6538 84.5063 79.7735C84.506 79.8932 84.4144 80.0664 84.3027 80.1583C84.191 80.2504 84.0622 80.5584 84.0163 80.8429C83.9706 81.1273 83.89 81.3601 83.8374 81.3601C83.7021 81.3601 83.4292 81.99 83.4292 82.3019C83.4292 82.4454 83.3761 82.5629 83.3109 82.5629C83.1731 82.5629 82.8085 83.3742 82.8661 83.5529C82.8876 83.6197 82.8494 83.7099 82.7812 83.7534C82.6105 83.8622 81.949 85.1832 81.949 85.415C81.949 85.7306 79.0319 87.865 76.5011 89.4011L75.019 90.3008L74.9327 87.9354C74.8089 84.5369 74.2935 82.2443 73.0783 79.6856C71.8072 77.0095 69.6363 74.3705 67.2815 72.639C66.7265 72.2309 63.8816 70.4708 60.9596 68.7278C53.6996 64.397 52.8913 63.838 51.9307 62.4834C51.6311 62.0607 51.3108 61.715 51.219 61.715C50.96 61.715 48.9024 60.6966 48.1992 60.2203C45.7341 58.5506 44.0266 56.1209 43.329 53.2897C42.3245 49.2134 43.3287 45.417 45.9412 43.4154C46.3315 43.1164 46.6836 42.8717 46.7237 42.8717C46.7638 42.8717 46.6468 43.2396 46.464 43.6894C46.2811 44.1391 45.9755 45.0863 45.7848 45.7942C45.4824 46.9172 45.4368 47.3625 45.4266 49.2864C45.4164 51.2007 45.455 51.6287 45.7186 52.5319C46.4837 55.1535 48.0265 57.2694 50.3773 58.9211C51.2688 59.5473 51.5376 59.6244 51.5376 59.2536C51.5376 58.9105 52.6357 57.8486 53.3254 57.5248C54.9097 56.781 57.2713 56.5928 60.2437 56.9738C63.5011 57.3913 65.2675 57.7418 73.6733 59.639C75.1535 59.9731 76.7637 60.2838 77.2517 60.3297L78.1387 60.413L77.6376 61.3749C77.0455 62.5113 76.8791 63.4536 77.1053 64.3899C77.1937 64.7562 77.3129 65.056 77.3701 65.056C77.4273 65.056 77.5108 64.8275 77.5558 64.5482C77.6767 63.7966 78.3969 62.4575 78.9302 61.9924C79.1874 61.7683 79.8645 61.3586 80.435 61.0819C81.1397 60.7403 81.743 60.3122 82.3154 59.7471C83.153 58.9206 83.1596 58.9172 83.3541 59.2126C83.7781 59.8564 83.9881 60.5844 83.9929 61.4285C83.998 62.3022 83.9987 62.3037 84.2067 61.9097C84.4899 61.3737 84.5773 59.7664 84.371 58.889C84.1543 57.9668 83.4264 56.5123 82.6852 55.5206L82.1009 54.7387L82.0168 55.2533C81.9707 55.5364 81.8902 55.9726 81.8381 56.2226L81.7433 56.6771L81.2253 55.8437C80.7187 55.0285 79.1962 53.2956 78.9866 53.2956C78.9285 53.2956 78.8063 53.6114 78.7152 53.9972C78.6239 54.3831 78.5214 54.7475 78.4871 54.8068C78.4528 54.8663 77.8575 54.3251 77.1642 53.6041C75.7729 52.1573 75.7807 52.1583 75.4872 53.3735C75.391 53.7716 75.273 54.0975 75.225 54.0975C75.1769 54.0975 74.8451 53.761 74.4876 53.3497C74.13 52.9385 73.5003 52.339 73.0878 52.0176C72.2562 51.3693 72.1327 51.4047 72.1258 52.2933C72.1191 53.1613 71.9925 53.2518 71.2298 52.9333C69.8156 52.3429 68.6737 52.1597 66.4069 52.1597C65.2227 52.1597 63.8792 52.2102 63.4213 52.2721L62.5888 52.3845L62.4327 51.8087C62.2026 50.9599 62.2322 49.5661 62.4972 48.7736C62.8538 47.7074 63.8418 46.7222 65.2177 46.0609C66.5449 45.4229 66.9893 45.392 68.0309 45.8656C69.4728 46.5211 71.5204 48.2445 72.3481 49.499C72.6539 49.9625 72.7969 49.7501 72.8234 48.7931L72.846 47.9813L73.3414 48.7341C73.8588 49.5201 74.2156 49.8854 74.872 50.3002L75.2632 50.5476L75.1728 49.4826L75.0823 48.4177L75.519 49.2864C75.9359 50.1158 77.3205 51.6919 77.6322 51.6919C77.7246 51.6919 77.7802 51.2663 77.7849 50.5226L77.7922 49.3532L78.0624 50.0149C78.4248 50.9024 79.1648 51.8804 79.742 52.2346C80.0015 52.3939 80.2359 52.5023 80.2627 52.4756C80.2896 52.4489 80.3621 51.8579 80.4239 51.1624L80.5361 49.8979L81.1416 50.8257C81.4747 51.3359 82.1408 52.1455 82.6218 52.6247L83.4965 53.4961L83.5355 52.3128L83.5747 51.1297L84.0738 51.2225C85.5198 51.4913 86.9494 52.609 87.4197 53.8382L87.6862 54.5347L88.1963 52.5454C88.9307 49.6808 89.8213 47.063 90.5563 45.6075L91.1954 44.3417H90.8298C90.4358 44.3417 89.67 44.7976 89.0007 45.4303L88.5841 45.8243L88.3417 45.1832C87.6777 43.4259 86.3661 41.3649 85.3142 40.4258C84.6859 39.8649 83.6552 39.2484 83.0304 39.06C82.7467 38.9744 82.7904 39.0612 83.3318 39.6592C84.1199 40.5297 84.56 41.8266 84.2977 42.5054C84.2464 42.6382 83.9319 42.4071 83.2548 41.7393C81.4635 39.9722 77.9409 37.9427 73.4042 36.0639C69.4492 34.426 68.9075 34.069 68.248 32.6663C67.7687 31.6468 67.4986 29.6379 67.8148 29.4439C67.8861 29.4002 68.3424 29.3575 68.829 29.3494L69.7138 29.3344L68.1473 28.8141C65.0879 27.7982 62.8074 26.534 60.7552 24.7165C56.1543 20.6416 48.6162 17.0714 42.6469 16.1399C41.1138 15.9007 40.9965 16.0202 42.2674 16.5264C42.8883 16.7738 45.6022 18.0368 45.6022 18.0368C45.6022 18.0368 46.4246 18.3756 46.761 18.5092C47.0974 18.6429 47.3665 18.7765 47.8375 19.1106C48.3085 19.4447 48.5449 19.6015 49.1532 19.9896C49.8585 20.4394 51.0636 21.4675 52.4795 22.8272L54.6998 24.9594L53.7579 24.5462C53.2398 24.319 52.6096 24.0421 52.3576 23.9309C51.2647 23.4489 48.4871 22.4946 46.5808 21.9461C44.2334 21.2708 42.1723 20.8355 39.0784 20.3617C32.9825 19.4282 28.3733 16.9077 25.2755 12.8139L24.917 12.3401L25.881 11.6969C31.299 8.08182 38.316 5.39912 44.8094 4.4603C48.6176 3.90983 54.2937 3.84355 57.7275 4.30955C67.0723 5.57767 75.3014 9.2016 82.5882 15.2578C83.2829 15.8351 83.5638 16.1576 83.5638 16.3778C83.5638 16.7806 84.1903 18.0053 84.4462 18.1029C84.5557 18.1446 84.6298 18.2469 84.6111 18.3304C84.5526 18.5922 84.9334 19.3509 85.1234 19.3509C85.224 19.3509 85.2723 19.4347 85.2318 19.5394C85.1467 19.76 85.5288 20.5537 85.7203 20.5537C85.7924 20.5537 85.8514 20.7067 85.8514 20.8938C85.8514 21.0809 86.004 21.3856 86.1903 21.5707C86.3768 21.7559 86.5033 21.9492 86.4714 22.0002C86.3814 22.1451 86.7633 22.9592 86.9214 22.9592C86.9989 22.9592 87.0643 23.0945 87.0667 23.2599C87.069 23.4254 87.1599 23.6774 87.2686 23.82C87.3772 23.9627 87.4661 24.3182 87.4661 24.6101C87.4661 25.0721 87.7592 25.5835 89.7304 28.5604C90.9758 30.4411 92.253 32.386 92.5684 32.882C93.1632 33.8175 93.3798 33.9346 93.8762 33.5893C94.1334 33.4104 94.1686 33.4213 94.307 33.7229C94.4029 33.9319 94.5692 34.0514 94.7642 34.0514C95.1172 34.0514 98.0705 32.1366 98.1885 31.8312C98.2317 31.7194 98.1872 31.4799 98.0898 31.2991C97.9306 31.0036 97.9436 30.9489 98.2191 30.7573C98.4203 30.6172 98.5063 30.4466 98.4698 30.2597C98.4392 30.1034 97.3889 28.4255 96.136 26.5313C94.883 24.6371 93.6763 22.79 93.4542 22.4268C93.0383 21.7462 92.6421 21.3672 92.3387 21.3598C92.1732 21.3557 91.1042 20.3285 91.0949 20.1644C91.0839 19.9724 90.5649 19.4846 90.3714 19.4846C90.2367 19.4846 90.1574 19.3686 90.1574 19.1712C90.1574 18.8479 89.7856 18.4154 89.5076 18.4154C89.421 18.4154 89.35 18.3005 89.35 18.1601C89.35 18.0196 89.1836 17.7609 88.98 17.5851C88.7764 17.4094 88.5102 17.0883 88.3883 16.8716C88.2665 16.655 88.0394 16.4183 87.8837 16.3458C87.7281 16.2732 87.6007 16.1323 87.6007 16.0326C87.6007 15.7831 86.638 14.5683 86.3896 14.5045C86.2786 14.4759 86.0283 14.5411 85.8335 14.6495C85.4971 14.8364 85.4597 14.8255 85.0934 14.4334C84.8812 14.2063 84.1323 13.4993 83.4292 12.8623C75.1222 5.33605 64.6827 0.900381 53.4214 0.112303C51.6122 -0.0143881 48.795 -0.0377751 47.3661 0.0620544ZM257.42 27.7607C257.42 41.1954 257.373 47.9982 257.276 48.6938C256.372 55.1477 251.412 60.4959 244.795 62.1504C243.254 62.5354 239.357 62.5774 237.774 62.2259C233.647 61.3092 229.848 58.7163 227.529 55.2334C223.567 49.2829 224.073 41.5574 228.793 35.9717C231.156 33.1742 234.766 31.1435 238.498 30.5118C239.469 30.3474 241.129 30.3094 247.346 30.3094H254.998L254.996 29.9419C254.995 29.7399 254.874 26.327 254.728 22.3578C254.583 18.3887 254.463 14.9714 254.462 14.7638L254.46 14.3863L252.408 14.4685C240.407 14.9489 232.4 15.7368 229.162 16.7555C227.745 17.2013 225.221 18.5048 223.241 19.8132C218.43 22.9921 214.791 27.132 212.196 32.3809C210.592 35.623 209.588 38.8892 209.094 42.4707C208.83 44.3865 208.87 49.1234 209.168 51.0906C210.989 63.1348 219.283 72.969 230.845 76.7922C237.598 79.0252 245.624 78.9064 252.272 76.475C255.245 75.3876 259.204 73.1757 261.457 71.3428C266.779 67.0141 270.782 60.8487 272.414 54.4659C273.409 50.5735 273.35 52.1241 273.398 28.806L273.442 7.85784H265.431H257.42V27.7607ZM23.01 14.184C23.01 14.5429 23.9922 16.3502 24.6817 17.26C25.576 18.4402 27.4715 20.2718 28.6913 21.1346C30.49 22.4067 33.1296 23.5431 35.5816 24.1005C36.094 24.2169 37.8501 24.4855 39.484 24.6974C42.5893 25.0999 44.4073 25.5317 45.5135 26.1296C45.867 26.3207 46.1409 26.4917 46.122 26.5096C46.1032 26.5274 45.1189 26.4029 43.9347 26.2326C40.6539 25.7611 38.1659 25.628 33.3041 25.6636C28.4718 25.699 27.3787 25.5998 24.5693 24.8722C22.4237 24.3163 21.2551 23.7921 20.0796 22.8582L19.5042 22.4009L19.844 23.164C21.3549 26.5571 25.1241 28.9944 30.1419 29.823C31.8433 30.1039 34.7421 30.3072 37.1392 30.3136C39.0145 30.3185 40.8939 30.5402 41.3878 30.8147C41.8736 31.0847 37.762 31.8185 33.7078 32.1852C31.5434 32.3811 30.2733 32.6935 28.7962 33.3932C26.2628 34.5933 24.1457 36.7369 22.7403 39.5246C22.2163 40.564 21.3653 42.7222 21.422 42.8682C21.4442 42.9257 22.1277 42.4031 22.9406 41.707C26.1272 38.9783 29.4512 37.2213 31.7566 37.0472C32.4977 36.9913 32.5931 37.0075 32.3816 37.1534C29.0101 39.4773 26.7896 41.8981 25.182 45.0023C22.8995 49.4095 22.3516 54.1611 23.4892 59.6822C23.8739 61.5491 24.875 64.6585 25.6281 66.3256L26.111 67.3947L26.0071 66.2588C25.8342 64.3703 25.8864 58.96 26.0883 57.8394C26.2806 56.7725 26.9347 54.6395 27.2298 54.1174C27.3833 53.8457 27.4188 54.1616 27.493 56.4561C27.716 63.3531 28.9544 68.5691 31.2384 72.2319C31.9715 73.4076 33.6584 75.224 34.4096 75.6466L34.8247 75.8802L34.2949 74.3102C33.6135 72.2912 33.0093 69.9169 32.7614 68.2841C32.5468 66.8695 32.4993 64.9778 32.676 64.8694C32.7375 64.8316 32.8955 65.1438 33.0269 65.5632C33.36 66.6248 34.2747 68.4228 35.0837 69.6054C37.2279 72.7402 40.224 75.2226 44.2038 77.1618C46.4404 78.2518 47.6188 78.667 52.9199 80.2335C63.9387 83.4897 65.7031 84.1628 68.9636 86.3548C70.1328 87.141 73.7406 90.5094 73.7406 90.8151C73.7406 90.8931 73.1501 91.2396 72.4286 91.585C59.3844 97.8284 44.3006 97.871 31.4903 91.7006C26.4072 89.252 22.5025 86.501 18.633 82.6417C16.239 80.2541 14.7381 78.4306 12.8479 75.6136C10.5317 72.1617 8.86583 68.7673 7.51266 64.7427C5.86263 59.8353 5.11015 55.2131 5.1158 50.0214C5.12751 39.473 8.65672 29.5931 15.4274 21.1551C17.3786 18.7234 22.5533 13.7407 22.904 13.956C22.9622 13.9918 23.01 14.0944 23.01 14.184ZM120.569 14.4136C117.571 14.4629 114.771 14.5115 114.345 14.5216L113.572 14.5399V46.48V78.42H121.578H129.585V66.3924V54.3647H143.579H157.574V66.3924V78.42H165.513H173.453V57.4663V36.5125L165.547 25.426L157.641 14.3394L157.607 26.4005L157.572 38.4615H143.579H129.585V26.3671V14.2726L127.802 14.2982C126.821 14.3123 123.566 14.3641 120.569 14.4136ZM164.487 15.1747C164.808 15.6709 169.258 22.6742 174.375 30.7376L183.679 45.3984V61.9093V78.42H191.619H199.558V61.8604V45.3007L209.088 29.8869L218.618 14.473L213.898 14.3746C211.303 14.3204 207.182 14.2904 204.742 14.3077L200.305 14.3394L196.057 21.1203C193.721 24.8497 191.75 27.9607 191.677 28.0336C191.588 28.1211 190.065 25.8092 187.185 21.2194L182.828 14.2726H173.366H163.904L164.487 15.1747ZM305.931 14.4205C298.188 15.1358 290.899 18.6128 285.476 24.1786C281.456 28.3044 278.495 33.539 277.132 38.9293C276.164 42.7613 276.211 41.6929 276.16 61.0134L276.114 78.42H284.059H292.003V61.9329C292.003 47.8234 292.033 45.2747 292.207 44.259C293.408 37.258 299.212 31.4976 306.197 30.3724C307.613 30.1443 310.946 30.113 311.699 30.3208L312.22 30.4645L318.293 24.3547C321.633 20.9943 324.384 18.201 324.405 18.1474C324.461 18.0058 321.374 16.6531 319.724 16.0966C315.22 14.5778 310.473 14.001 305.931 14.4205ZM343.34 14.3509C338.52 14.8276 335.251 15.7082 331.498 17.5416C321.85 22.2541 315.353 31.118 313.715 41.8025C313.381 43.9815 313.384 48.7559 313.721 50.9569C315.112 60.0429 320.106 67.8956 327.663 72.8777C330.887 75.0035 333.107 76.0042 335.491 76.4065C339.124 77.0194 348.949 77.6124 355.542 77.6169L357.517 77.6182L357.456 71.6378C357.422 68.3486 357.359 64.9206 357.317 64.0203L357.24 62.3832H350.751C345.39 62.3832 344.042 62.3456 342.997 62.1673C335.236 60.8434 329.413 54.0619 329.413 46.3463C329.413 37.6396 336.801 30.3136 345.584 30.31C348.261 30.3089 350.372 30.8098 352.894 32.0444C353.782 32.4792 354.932 33.1527 355.45 33.541C358.525 35.8458 360.679 39.1621 361.671 43.122C361.871 43.917 361.898 45.7687 361.939 61.2138L361.984 78.42H369.992H378L377.954 60.8129C377.902 41.289 377.945 42.2962 376.99 38.5432C375.568 32.9609 372.566 27.7576 368.409 23.668C366.519 21.8088 365.449 20.9376 363.39 19.5807C359.54 17.0448 354.948 15.3052 350.27 14.6103C348.908 14.4082 344.448 14.2412 343.34 14.3509ZM60.9478 34.8506C61.5248 35.0149 62.1303 35.5809 62.2348 36.0535C62.2884 36.2957 62.5007 36.5189 62.8806 36.7323L63.4465 37.0504L62.9082 37.1537C61.9026 37.3467 59.325 37.3026 58.3655 37.0759C57.5061 36.8729 56.2072 36.3166 56.0682 36.0919C56.0332 36.0354 56.1652 35.9825 56.3614 35.9743C56.5577 35.9661 57.0352 35.7622 57.4226 35.5213C58.5117 34.8439 59.958 34.5687 60.9478 34.8506Z" fill="black"/>
</svg>
