<svg width="300" height="80" viewBox="0 0 300 80" fill="none" xmlns="http://www.w3.org/2000/svg">
<path fill-rule="evenodd" clip-rule="evenodd" d="M163.243 22.3962C163.243 36.8265 163.185 45.251 163.081 46.0814C162.094 53.9032 155.781 60.4003 147.786 61.8213C146.12 62.1175 142.805 62.0765 141.194 61.7399C134.723 60.3879 129.473 55.8307 127.23 49.6176C126.574 47.7994 126.28 45.955 126.287 43.6863C126.297 40.5115 126.921 38.0831 128.482 35.1376C131.192 30.0271 136.423 26.3758 142.177 25.5799C142.919 25.4773 146.711 25.4118 151.916 25.4118H160.439L160.328 22C160.067 13.9211 159.803 7.50667 159.728 7.43247C159.551 7.25584 147.57 7.8811 142.739 8.31922C137.154 8.82557 132.838 9.46447 131.068 10.0466C130.504 10.232 129.214 10.8031 128.201 11.3159C117.814 16.5744 110.713 26.186 108.573 37.8824C108.157 40.1544 108.157 47.5319 108.573 49.8039C109.288 53.715 110.376 56.9377 112.148 60.3944C116.461 68.8067 123.943 75.1937 133.004 78.1966C136.762 79.4422 140.437 80.0033 144.789 79.9958C150.959 79.9853 155.868 78.8397 161.214 76.1625C165.14 74.1967 167.488 72.5029 170.666 69.3427C176.304 63.7379 179.703 57.0825 181.022 49.064C181.261 47.6138 181.293 45.0563 181.339 23.7255L181.391 0H172.317H163.243V22.3962ZM7.41297 7.38055C4.07319 7.4378 1.03892 7.49475 0.670322 7.50714L0 7.52941V43.7647V80H9.06906H18.1381V66.3529V52.7059H34.0681H49.9981V66.3529V80H58.9883H67.9785L67.9779 56.2745L67.9774 32.549L65.6428 29.2549C63.4752 26.1967 57.1117 17.2604 52.3203 10.5467C51.1957 8.97082 50.2132 7.64314 50.1369 7.59623C50.0574 7.54729 49.9981 13.3144 49.9981 21.0888V34.6667H34.0681H18.1381V20.9412V7.21569L15.8117 7.24596C14.5321 7.26274 10.7527 7.32329 7.41297 7.38055ZM57.2534 7.28973C57.2534 7.33176 58.72 9.67922 60.5124 12.5065C63.8881 17.8309 65.5412 20.44 70.1802 27.7647C75.8993 36.7951 77.1214 38.7219 78.2887 40.549L79.4912 42.4314L79.4916 61.2157L79.4923 80H88.4825H97.4727V61.2802V42.5603L99.7467 38.888C100.997 36.8682 103.073 33.5084 104.36 31.4216C105.647 29.3351 107.696 26.0174 108.915 24.0491C110.133 22.0809 112.542 18.1765 114.267 15.3725C115.993 12.5686 117.808 9.63263 118.301 8.84816L119.197 7.4218L115.077 7.31906C112.812 7.26259 108.151 7.21616 104.721 7.216L98.4838 7.21569L95.2639 12.3529C93.493 15.1784 91.3137 18.6497 90.421 20.0668C89.5283 21.4839 88.7979 22.7015 88.7979 22.7727C88.7979 22.8438 88.7025 22.902 88.5859 22.902C88.4692 22.902 87.8388 22.0373 87.185 20.9804C85.1387 17.6733 83.0453 14.3224 80.7906 10.7451L78.6153 7.29412L67.9343 7.2538C62.0598 7.23169 57.2534 7.24784 57.2534 7.28973ZM218.998 7.30651C218.738 7.34274 217.851 7.44926 217.026 7.54337C211.581 8.16439 206.211 10.1307 201.333 13.2899C199.215 14.6616 197.879 15.7357 195.831 17.7144C190.363 22.9978 186.519 29.9967 185.1 37.2549C184.509 40.2759 184.49 40.9145 184.424 60.5882L184.359 80H193.352H202.344L202.398 60.8235L202.452 41.6471L202.805 40.3137C204.888 32.4376 210.852 26.8254 218.558 25.4888C220.065 25.2276 223.694 25.182 224.694 25.4116L225.343 25.5606L232.265 18.6568C236.072 14.8598 239.206 11.6962 239.231 11.6265C239.255 11.557 238.638 11.21 237.86 10.8555C234.561 9.35263 230.521 8.14839 226.963 7.608C225.391 7.36926 220.01 7.16565 218.998 7.30651ZM259.69 7.38023C251.027 8.26494 242.966 12.168 236.989 18.3711C234.101 21.3682 232.164 24.1944 230.193 28.2875C227.843 33.1667 226.799 37.907 226.809 43.6637C226.822 50.7595 228.371 56.3674 232.015 62.5035C234.464 66.6271 238.805 71.1101 243.079 73.9289C244.829 75.083 248.401 76.9192 249.675 77.3192C252.523 78.2136 260.521 78.8577 272.415 79.1507L276.78 79.2584L276.708 72.3743C276.669 68.5881 276.597 64.7035 276.548 63.7423L276.459 61.9942L268.784 61.9117C260.564 61.8234 259.955 61.7716 257.502 60.9526C251.759 59.0355 247.049 54.0458 245.453 48.1892C245.074 46.7995 245.038 46.4066 245.034 43.6863C245.03 41.1096 245.077 40.5308 245.375 39.4143C246.318 35.8852 248.028 32.9981 250.657 30.4944C255.379 25.9981 262.122 24.3401 268.41 26.1299C270.205 26.6413 272.971 27.9923 274.359 29.0364C277.924 31.7191 280.2 35.1583 281.407 39.6863L281.762 41.0196L281.811 60.5098L281.86 80H290.93H300L299.947 60.0392C299.899 42.1923 299.865 39.904 299.626 38.4314C298.35 30.5768 294.829 23.613 289.343 18.0969C287.045 15.7864 285.97 14.9024 283.507 13.2971C278.801 10.23 273.975 8.38714 268.602 7.60549C266.567 7.30949 261.61 7.18416 259.69 7.38023Z" fill="black"/>
</svg>
