<svg width="302" height="80" viewBox="0 0 302 80" fill="none" xmlns="http://www.w3.org/2000/svg">
<path fill-rule="evenodd" clip-rule="evenodd" d="M165.243 22.3962C165.243 36.8265 165.185 45.251 165.081 46.0814C164.094 53.9032 157.781 60.4003 149.786 61.8213C148.12 62.1175 144.805 62.0765 143.194 61.7399C136.723 60.3879 131.473 55.8307 129.23 49.6176C128.574 47.7994 128.28 45.955 128.287 43.6863C128.297 40.5115 128.921 38.0831 130.482 35.1376C133.192 30.0271 138.423 26.3758 144.177 25.5799C144.919 25.4773 148.711 25.4118 153.916 25.4118H162.439L162.328 22C162.067 13.9211 161.803 7.50667 161.728 7.43247C161.551 7.25584 149.57 7.8811 144.739 8.31922C139.154 8.82557 134.838 9.46447 133.068 10.0466C132.504 10.232 131.214 10.8031 130.201 11.3159C119.814 16.5744 112.713 26.186 110.573 37.8824C110.157 40.1544 110.157 47.5319 110.573 49.8039C111.288 53.715 112.376 56.9377 114.148 60.3944C118.461 68.8067 125.943 75.1937 135.004 78.1966C138.762 79.4422 142.437 80.0033 146.789 79.9958C152.959 79.9853 157.868 78.8397 163.214 76.1625C167.14 74.1967 169.488 72.5029 172.666 69.3427C178.304 63.7379 181.703 57.0825 183.022 49.064C183.261 47.6138 183.293 45.0563 183.339 23.7255L183.391 0H174.317H165.243V22.3962ZM9.41297 7.38055C6.07319 7.4378 3.03892 7.49475 2.67032 7.50714L2 7.52941V43.7647V80H11.0691H20.1381V66.3529V52.7059H36.0681H51.9981V66.3529V80H60.9883H69.9785L69.9779 56.2745L69.9774 32.549L67.6428 29.2549C65.4752 26.1967 59.1117 17.2604 54.3203 10.5467C53.1957 8.97082 52.2132 7.64314 52.1369 7.59623C52.0574 7.54729 51.9981 13.3144 51.9981 21.0888V34.6667H36.0681H20.1381V20.9412V7.21569L17.8117 7.24596C16.5321 7.26274 12.7527 7.32329 9.41297 7.38055ZM59.2534 7.28973C59.2534 7.33176 60.72 9.67922 62.5124 12.5065C65.8881 17.8309 67.5412 20.44 72.1802 27.7647C77.8993 36.7951 79.1214 38.7219 80.2887 40.549L81.4912 42.4314L81.4916 61.2157L81.4923 80H90.4825H99.4727V61.2802V42.5603L101.747 38.888C102.997 36.8682 105.073 33.5084 106.36 31.4216C107.647 29.3351 109.696 26.0174 110.915 24.0491C112.133 22.0809 114.542 18.1765 116.267 15.3725C117.993 12.5686 119.808 9.63263 120.301 8.84816L121.197 7.4218L117.077 7.31906C114.812 7.26259 110.151 7.21616 106.721 7.216L100.484 7.21569L97.2639 12.3529C95.493 15.1784 93.3137 18.6497 92.421 20.0668C91.5283 21.4839 90.7979 22.7015 90.7979 22.7727C90.7979 22.8438 90.7025 22.902 90.5859 22.902C90.4692 22.902 89.8388 22.0373 89.185 20.9804C87.1387 17.6733 85.0453 14.3224 82.7906 10.7451L80.6153 7.29412L69.9343 7.2538C64.0598 7.23169 59.2534 7.24784 59.2534 7.28973ZM220.998 7.30651C220.738 7.34274 219.851 7.44926 219.026 7.54337C213.581 8.16439 208.211 10.1307 203.333 13.2899C201.215 14.6616 199.879 15.7357 197.831 17.7144C192.363 22.9978 188.519 29.9967 187.1 37.2549C186.509 40.2759 186.49 40.9145 186.424 60.5882L186.359 80H195.352H204.344L204.398 60.8235L204.452 41.6471L204.805 40.3137C206.888 32.4376 212.852 26.8254 220.558 25.4888C222.065 25.2276 225.694 25.182 226.694 25.4116L227.343 25.5606L234.265 18.6568C238.072 14.8598 241.206 11.6962 241.231 11.6265C241.255 11.557 240.638 11.21 239.86 10.8555C236.561 9.35263 232.521 8.14839 228.963 7.608C227.391 7.36926 222.01 7.16565 220.998 7.30651ZM261.69 7.38023C253.027 8.26494 244.966 12.168 238.989 18.3711C236.101 21.3682 234.164 24.1944 232.193 28.2875C229.843 33.1667 228.799 37.907 228.809 43.6637C228.822 50.7595 230.371 56.3674 234.015 62.5035C236.464 66.6271 240.805 71.1101 245.079 73.9289C246.829 75.083 250.401 76.9192 251.675 77.3192C254.523 78.2136 262.521 78.8577 274.415 79.1507L278.78 79.2584L278.708 72.3743C278.669 68.5881 278.597 64.7035 278.548 63.7423L278.459 61.9942L270.784 61.9117C262.564 61.8234 261.955 61.7716 259.502 60.9526C253.759 59.0355 249.049 54.0458 247.453 48.1892C247.074 46.7995 247.038 46.4066 247.034 43.6863C247.03 41.1096 247.077 40.5308 247.375 39.4143C248.318 35.8852 250.028 32.9981 252.657 30.4944C257.379 25.9981 264.122 24.3401 270.41 26.1299C272.205 26.6413 274.971 27.9923 276.359 29.0364C279.924 31.7191 282.2 35.1583 283.407 39.6863L283.762 41.0196L283.811 60.5098L283.86 80H292.93H302L301.947 60.0392C301.899 42.1923 301.865 39.904 301.626 38.4314C300.35 30.5768 296.829 23.613 291.343 18.0969C289.045 15.7864 287.97 14.9024 285.507 13.2971C280.801 10.23 275.975 8.38714 270.602 7.60549C268.567 7.30949 263.61 7.18416 261.69 7.38023Z" fill="white"/>
<path fill-rule="evenodd" clip-rule="evenodd" d="M163.243 22.3962C163.243 36.8265 163.185 45.251 163.081 46.0814C162.094 53.9032 155.781 60.4003 147.786 61.8213C146.12 62.1175 142.805 62.0765 141.194 61.7399C134.723 60.3879 129.473 55.8307 127.23 49.6176C126.574 47.7994 126.28 45.955 126.287 43.6863C126.297 40.5115 126.921 38.0831 128.482 35.1376C131.192 30.0271 136.423 26.3758 142.177 25.5799C142.919 25.4773 146.711 25.4118 151.916 25.4118H160.439L160.328 22C160.067 13.9211 159.803 7.50667 159.728 7.43247C159.551 7.25584 147.57 7.8811 142.739 8.31922C137.154 8.82557 132.838 9.46447 131.068 10.0466C130.504 10.232 129.214 10.8031 128.201 11.3159C117.814 16.5744 110.713 26.186 108.573 37.8824C108.157 40.1544 108.157 47.5319 108.573 49.8039C109.288 53.715 110.376 56.9377 112.148 60.3944C116.461 68.8067 123.943 75.1937 133.004 78.1966C136.762 79.4422 140.437 80.0033 144.789 79.9958C150.959 79.9853 155.868 78.8397 161.214 76.1625C165.14 74.1967 167.488 72.5029 170.666 69.3427C176.304 63.7379 179.703 57.0825 181.022 49.064C181.261 47.6138 181.293 45.0563 181.339 23.7255L181.391 0H172.317H163.243V22.3962ZM7.41297 7.38055C4.07319 7.4378 1.03892 7.49475 0.670322 7.50714L0 7.52941V43.7647V80H9.06906H18.1381V66.3529V52.7059H34.0681H49.9981V66.3529V80H58.9883H67.9785L67.9779 56.2745L67.9774 32.549L65.6428 29.2549C63.4752 26.1967 57.1117 17.2604 52.3203 10.5467C51.1957 8.97082 50.2132 7.64314 50.1369 7.59623C50.0574 7.54729 49.9981 13.3144 49.9981 21.0888V34.6667H34.0681H18.1381V20.9412V7.21569L15.8117 7.24596C14.5321 7.26274 10.7527 7.32329 7.41297 7.38055ZM57.2534 7.28973C57.2534 7.33176 58.72 9.67922 60.5124 12.5065C63.8881 17.8309 65.5412 20.44 70.1802 27.7647C75.8993 36.7951 77.1214 38.7219 78.2887 40.549L79.4912 42.4314L79.4916 61.2157L79.4923 80H88.4825H97.4727V61.2802V42.5603L99.7467 38.888C100.997 36.8682 103.073 33.5084 104.36 31.4216C105.647 29.3351 107.696 26.0174 108.915 24.0491C110.133 22.0809 112.542 18.1765 114.267 15.3725C115.993 12.5686 117.808 9.63263 118.301 8.84816L119.197 7.4218L115.077 7.31906C112.812 7.26259 108.151 7.21616 104.721 7.216L98.4838 7.21569L95.2639 12.3529C93.493 15.1784 91.3137 18.6497 90.421 20.0668C89.5283 21.4839 88.7979 22.7015 88.7979 22.7727C88.7979 22.8438 88.7025 22.902 88.5859 22.902C88.4692 22.902 87.8388 22.0373 87.185 20.9804C85.1387 17.6733 83.0453 14.3224 80.7906 10.7451L78.6153 7.29412L67.9343 7.2538C62.0598 7.23169 57.2534 7.24784 57.2534 7.28973ZM218.998 7.30651C218.738 7.34274 217.851 7.44926 217.026 7.54337C211.581 8.16439 206.211 10.1307 201.333 13.2899C199.215 14.6616 197.879 15.7357 195.831 17.7144C190.363 22.9978 186.519 29.9967 185.1 37.2549C184.509 40.2759 184.49 40.9145 184.424 60.5882L184.359 80H193.352H202.344L202.398 60.8235L202.452 41.6471L202.805 40.3137C204.888 32.4376 210.852 26.8254 218.558 25.4888C220.065 25.2276 223.694 25.182 224.694 25.4116L225.343 25.5606L232.265 18.6568C236.072 14.8598 239.206 11.6962 239.231 11.6265C239.255 11.557 238.638 11.21 237.86 10.8555C234.561 9.35263 230.521 8.14839 226.963 7.608C225.391 7.36926 220.01 7.16565 218.998 7.30651ZM259.69 7.38023C251.027 8.26494 242.966 12.168 236.989 18.3711C234.101 21.3682 232.164 24.1944 230.193 28.2875C227.843 33.1667 226.799 37.907 226.809 43.6637C226.822 50.7595 228.371 56.3674 232.015 62.5035C234.464 66.6271 238.805 71.1101 243.079 73.9289C244.829 75.083 248.401 76.9192 249.675 77.3192C252.523 78.2136 260.521 78.8577 272.415 79.1507L276.78 79.2584L276.708 72.3743C276.669 68.5881 276.597 64.7035 276.548 63.7423L276.459 61.9942L268.784 61.9117C260.564 61.8234 259.955 61.7716 257.502 60.9526C251.759 59.0355 247.049 54.0458 245.453 48.1892C245.074 46.7995 245.038 46.4066 245.034 43.6863C245.03 41.1096 245.077 40.5308 245.375 39.4143C246.318 35.8852 248.028 32.9981 250.657 30.4944C255.379 25.9981 262.122 24.3401 268.41 26.1299C270.205 26.6413 272.971 27.9923 274.359 29.0364C277.924 31.7191 280.2 35.1583 281.407 39.6863L281.762 41.0196L281.811 60.5098L281.86 80H290.93H300L299.947 60.0392C299.899 42.1923 299.865 39.904 299.626 38.4314C298.35 30.5768 294.829 23.613 289.343 18.0969C287.045 15.7864 285.97 14.9024 283.507 13.2971C278.801 10.23 273.975 8.38714 268.602 7.60549C266.567 7.30949 261.61 7.18416 259.69 7.38023Z" fill="#556B2F"/>
</svg>
